<svg xmlns="http://www.w3.org/2000/svg" xml:space="preserve" fill-rule="evenodd" stroke-linejoin="round" stroke-miterlimit="2" clip-rule="evenodd" viewBox="0 0 1024 1024"><path fill="#fff" stroke="#fff" stroke-width="5.865851" d="M300.6 560.6c-26.2-40.3-44-67.7-45.3-69.3-4-5.2-4.5-12.7-1-14.1 4.2-4.3 12.7 10.8 22.6 25.7 3.4 5 16.7 25.4 35.8 54.6-4 1-8.2 2-12 3.1ZM365.7 661.1 344 627.5l10-6.4a111.5 111.5 0 0 0 12.9 19l9.8 15c-1.7.2-4.1.8-6.8 2.5-.9.6-2.3 1.8-4 3.5Z"/><path fill="#fff" stroke="#fff" stroke-width="5.676629999999999" d="M182.6 208.7c.5-1 6.8.3 13.8 2.7 7 2.5 17.7 5.8 23.7 7.5 6.8 1.9 10.9 4 10.9 5.7 0 1.5-1 2.8-2.4 2.8a32 32 0 0 0-7.8 2.4l-5.5 2.3 31 31.2c38.7 38.8 46 45 46 69.4 0 14.8-4.3 18-9 27.5-4.6 9.5-48.2 49.4-51.9 49.5-.7 0-2.5.8-3.9 1.7-3.6 2.2 12.3 23.6 16.4 22 4-1.6 8 2.5 8 8 0 7.6-15.6 21.3-24.2 21.3h-6.6l1.1-8.2c1.2-8.7-.4-12.4-9.5-22.3l-4.6-5-16.3 5.7c-20.8 7.1-62.5 26.8-78.7 18.9-14.6-7.2-35-30.6-49.8-57.3-12.6-22.6-17.9-31-19.6-31-1 0-4.1 3.5-7 7.7-5.8 8.9-8.9 8.8-9.7-.2-.3-3.6-1.8-13.2-3.4-21.3a68 68 0 0 1-2-17.3c.8-2 5.6-1 21.5 4l22.8 7.4c4 1.2 2.6 4.1-2.4 5.4-8 2-7.7 6.1 1.2 16 4.6 5 9.6 10.7 11.1 12.7 1.6 2 11 13.5 21 25.4 14.7 17.6 20.2 22.8 28.9 27.2 11.7 5.9 51.2-12.4 61.2-20.3 5.5-4.4 7.7-6.3 0-17.5-23.3-33.2-65.8-81.3-87.7-121.2-.7-3.4-11.1 5-17.1 10-1.8 1.3-.2-6.1.1-25.6.2-9.3.2-19.8 1.1-20.5 1-.7 9.1 1 18 5 18.3 8.1 29.2 11.1 27.6 11.5-2.2.5-12.5 6.9-15.1 8.4 26 37.5 68.6 85 91.1 118.4 9 13.3 14.6 10.8 19.9 6.3 15-12.6 40.7-34.3 41-53.6 0-13-4.7-21-25.3-42.6-8-8.3-17-18.5-20-22.7-3-4.2-7.5-9.7-9.9-12.3a19.2 19.2 0 0 1-4.2-6.1c0-3.6-5.2-.9-10 5.2-3 3.6-6 6.6-6.9 6.6-.9 0-2.2-6.6-2.8-14.7-.7-8-2.2-19.1-3.2-24.6-1.1-5.4-1.5-10.6-1-11.5Z"/><path fill="#fff" d="m378.3 867 1.3 4.2 6.6 21.6-4.2 2.9c-2.4 1.6-7.8 6.7-12 11.2l-7.7 8.3-6.5-3.9c-6.7-4-19.4-16.1-24.9-23-1.3-1.7-4.4-6.6-5.2-7.8-.8-1.2-5.8-9.8-10.1-19.8 12.3 1.4 35 3.7 62.7 6.2Zm111.2 80.6C476 961 444.7 972 429 969c-5.8-1.1-6.7-2-6.7-6.6 0-1.1.2-2.5.6-3.9a21 21 0 0 1 3.3-6.5c3.5-4.4 3.6-5 .9-6.1-4.4-1.7-10.1 4.3-12.8 13l-2.2 7.5-9.2-.9c-13.2-1.2-14.7-3.5-9.2-13.8 2.5-4.6 5.2-8.4 6.1-8.4 1 0 1.7-1.3 1.7-2.9 0-7.5-12.4-.3-18 10.5-3.5 6.7-5.8 7.1-7.3 1.4-2.2-8-1.3-14 3.5-23.3a38.2 38.2 0 0 1 25.7-20.4c4.6-1.3 8.3-3.2 8.3-4.2s-3.2-11.6-7-23.6c-4.8-15-8.4-28.5-11-41.3a430 430 0 0 0 90.8.2 840 840 0 0 0 12.3 40.5c6 18.7 4 54.5-9.2 67.4Zm202.3-75.3a3086 3086 0 0 0-8.8 31c-.4 1.8 1.4 3.2 5 4 21.2 4.7 35.7 22.9 32.3 40.5-1.6 8.6-4.9 8.7-9.3.4-3.8-7-12-12-15-9-1 1 .5 4.8 4.2 9.8 3.2 4.5 5.8 9.3 5.8 10.7 0 3.3-7.7 6.3-16.2 6.3-5.6 0-6.5-.6-6.5-4.6 0-5.2-8.5-16.2-12.5-16.2-3 0-3.6 6.7-.8 8.5 1.4.8 2 4.6 1.9 8.1-.1 3.2-.8 6-2 6.5-1.1.3-8.7 0-16.9-.6-27.5-2.4-51.5-22.2-50.9-48.6.8-30 4.7-54.6 9.3-75h.2a431.8 431.8 0 0 0 87.5 1.3 680 680 0 0 1-7.3 27Zm117.7-39.7a51.4 51.4 0 0 1 28.7 27.5c2 5.2 3.2 11.2 3.6 18.2 1.1 17-3.5 27.7-15.3 35.4-10 6.5-14.5 6.5-14.5.2 0-6.4-6.6-19-10.7-20.6-6.5-2.5-7.5 2.2-3 14.3 2.2 6.4 3.6 12.4 3 13.4-.3.5-1 .8-2.1 1-5.6 1.2-19.7-1-22.7-4-3-2.8-2.8-3.4 1.6-8.3 2.1-2.4 4.1-5.1 6-8 4.3-6.8 7-14 6.1-17-1-3-2.8-3.8-8.2-3.8-6 0-7.8 1.2-13 8.2-1.8 2.3-4.1 4.8-6.7 7.2-8.5 7.9-20 15-25.4 15.2-3.7.1-7.4-1.9-12-6.3a91.4 91.4 0 0 0-11.1-9.4c-3.9-2.4-4.2-3.4-2.4-6.8a141 141 0 0 0 6.2-20l79.6-5.6c1.8 0 3.7-.8 5.4-2.7 1-1.2 2.2-3.6 3.2-7 1.4-5 2.7-13.2 3.7-21Zm-12.2-6.2-2 15c-.6 3.3-1.6 7.2-2.2 9.4l-72.3 5c3.6-14.9 7-30.9 8-39.2 3-23.6 0-45.3-6.5-49.7-3.5-2.4-9.2-1.6-12.8 1.6-3 2.7-3.5 6.2-3.5 23.5 0 13.7-1 25.5-4 40.1a417.8 417.8 0 0 1-87.6-.7c5.9-22.5 11.9-39 13.8-51 2.4-16-8.4-33.6-20-1.8a330.1 330.1 0 0 0-19.2 69.7l-1.8 14.7a1199.6 1199.6 0 0 1-76-.1c-5.6-26.1-11.3-53.3-15.4-70-12-49.2-26-29.3-23-14.1 2.5 12.8 5.3 28 10.4 48.3-18.5 1.9-23.9 2.1-43.4 2.1-23.4 0-46.3-2.9-46.3-2.9h-.2c-1.4-9.4-2.3-18.5-2.6-27.8-1.1-28.2-1.7-31-6.8-32.9-12-4.4-16.6 4.7-16.6 33.6 0 19 2 34.1 7.3 54.5a3453 3453 0 0 1-64-6.5c-.6-1.6-.9-2.6-1.3-4.2-4.8-18.2-4.3-48 1-67.2a235.5 235.5 0 0 1 44.8-82c11-13.7 21.3-24.9 23-24.9.7 0 2.3.7 4.3 1.8 2.6 1.5 6 3.6 9.2 6.1 31 23.4 81.7 39 137.5 42.3 23 1.4 65.8-1.5 88-6 30.9-6.2 63.1-19.6 86.6-35.9 3.8-2.6 7.5-5 10.3-6.5 0 0 2.6-1.8 4.2-1.8 1.4 0 5.4 3.3 8.9 7.3l18.3 20.6c29.1 32.5 48.2 75.5 50.8 114l1 15.6ZM513.9 876a1093.5 1093.5 0 0 0 71.8 0 239.2 239.2 0 0 1-12 56.9c-2 5.4-13.3 6.6-24 6.9l-9-.2c-9.3-1-12.3-4.4-14.2-10.8a841.3 841.3 0 0 1-12.6-52.8Z"/><path fill="#fff" d="M360.1 601.6c-3.1 1.6-6 3.2-8.2 4.6a645 645 0 0 0-47 31.5c-4.3 3-12 3.5-16-.9-4.2-4.5-3-10.3 3.6-17.9 2.2-2.5 10-7.4 18.5-11.6 33.2-16.4 14.7-16.7-2.8-12.8-9.8 2.2-19.5 5.5-21.3 6.3-4.7 2-7.8 2.4-11.2-1-4.6-4.7-3.7-11.5 2.1-15.7 0 0 8.6-4 14.3-6.2a199 199 0 0 1 33.6-8.9c8-1.2 16-1.7 24.1-1.4-.8-6.4-1-18.8-1-18.8a181 181 0 0 1 22.8-95.6 205.3 205.3 0 0 1 43.6-55.2l19-18.3-18-22.5a357.9 357.9 0 0 1-60-100.8 245 245 0 0 1-11.8-106c3.3-21.4 9.5-39.3 15-43.6 3.6-2.8 6.3-3.5 10.6-2.6 23 5 59.5 37.8 81.2 73a258.7 258.7 0 0 1 28.8 78.4c4.9 23.7 5 25.9 3.9 69.2-1 38.1-.7 45 1.6 47 4.7 3.9 8.3.8 14.5-12.1 4-8.5 9.8-16.2 19.1-25.1 29.8-28.9 35-36.6 40.8-61 3.3-14.5 6.4-17.3 14-13.2 6.1 3.3 8 5.6 13 15 3.5 6.7 4.6 12.4 5.2 27 .7 15.6 1.4 18.7 4.4 20.4 5.3 2.8 10-.5 18.6-13.3 13.4-19.8 25.8-24.3 36-13.4 12.6 13.6 7.2 47.6-10.5 65.3-9.4 9.3-30.5 16.1-50.2 16.1-14 0-29.3 6.5-35.6 15.3-6 8.2-8.1 8-6.4-.8a47.6 47.6 0 0 1 28.5-34.2c5.8-2.6 8-4.7 8-7.6 0-9.2-10.2-11.2-24.3-4.8a54.6 54.6 0 0 0-28.9 27.5c-5.5 11.2-6 13.3-5 25 1.5 16.2 5.7 26.2 14.4 34 8.4 7.5 12.2 8.9 17.1 6.3 3.9-2.1 4.8-4.2 6.7-15.5a36 36 0 0 1 7.5-14.2l6.4-7.3 21.9-1.2c19.7-1 23.2-1.8 35.7-7.7 24.4-11.6 38.5-30.1 44.1-58 .7-3.6 1.3-7.3 1.7-10.7 2.2-5 4.4-10.6 6.5-16.1 10.5-27 29.2-103.7 15-110-11-4.8-36.1 44.8-47.1 71.6-7.6-4-16.4-5.4-25.5-3.4a31 31 0 0 0-11.3 4 4 4 0 0 1-3 1.8c-2.3 0-1.2-11.7 3-32.3a260 260 0 0 1 27.9-68c14.1-23 43.3-51.8 61.9-61 16.5-8.3 21.5-8.7 27.2-2.2 15.4 17.7 20 82.6 8.7 126.7a395.6 395.6 0 0 1-40.2 89.2 388.4 388.4 0 0 1-39.9 52.4c-3.8 3.5-3.7 3.6 19 26.5 42.7 43.1 58.6 79.8 59.8 138.6a1786.4 1786.4 0 0 0 .6 26.5c5.4-.2 13-.4 19.4-.2 10.4.2 17.8 1.8 24 4 14 4.8 30.3 11 29.1 20.7-1 9-5.2 9.7-22.9 4-33.2-10.9-39.3-8.3-14 6 8.1 4.5 18.2 11.5 22.4 15.5 6.9 6.5 7.6 8 6.5 13.5-2.1 11-10 12.1-21.2 3.3-7.4-6-26-18-29.8-19.7l-20.4-13.1-.2.7c-11.7 30.5-48.9 62.6-86.6 75.6-40 13.9-69.7 18-116.8 16.7-31.4-1-38-1.8-57.8-6.9-49.9-13-78-29.4-100.8-59-8.9-11.5-11.2-17.7-15.6-27.4Zm251.6-149.7c-5 5.4-5.2 9-.6 14.7 7.1 8.7 23 3.3 23-8 0-10.4-14.7-14.8-22.4-6.7Zm-144.1-3c-7.8 2.7-9.7 11.6-3.8 17.5 7 7.1 22.7 2.5 22.7-6.7 0-1.6-2-5-4.6-7.5-4.6-4.5-8.5-5.5-14.3-3.4ZM446.3 363c8.1 1.2 2.6-53.7-4.2-79.3-7.4-28-37.4-101-52.5-97.7-12.4 2.7-2 63.7 5 90 7.5 28 43.5 85.8 51.7 87Zm192.4 140A28 28 0 0 0 624 540c3 7.1 5.2 9.6 12.5 13.2 12.2 6 22 4.4 32.5-5.5 7.6-7 9-13 9-19.3a24 24 0 0 0-8.3-19c-9.6-8.9-20-11-30.9-6.2Zm8 7.1c7.6-4.2 16.3 4 12.8 12.4-1.5 3.7-3.4 5.6-7.9 6.1-3.5.4-8.7-1.5-10-4.6-2.1-5.5 0-11 5.2-13.9Zm-114.8 34c-7.6 1.6-11.3 5-11.3 10.5 0 5.4 5.8 11.6 13.4 14.3 7 2.4 7 4.3-1 12.1-8.1 8.2-17.5 8.8-26.8 1.7-6.2-4.7-6.3-4.8-8.4-.9-2.7 5-1.2 9.5 5.6 16 9.5 9 25 9.5 36.3 1.1 6.7-5 7.6-4.9 16 .8 5.5 3.8 9.4 4.8 18 4.8 10.2 0 11.6-.6 18.5-7.1 6.1-5.9 7.3-8 6.5-12.4-1.4-7.4-3.6-8-10.2-2.4-10.9 9.1-28.8 4.8-32.8-8-1.2-3.6-.2-4.7 7-7.8 6-2.6 8.8-5 9.7-8.5 1.6-6.3-1.5-12.2-7-13.3-7.1-1.6-27.5-2-33.5-.8ZM437.6 502c-2.4.4-7.7 4.1-11.8 8.2-6.8 6.8-7.4 8.3-7.4 17.4 0 14.6 7.2 23.8 22 28 6.8 1.9 9 1.6 16.6-1.8 15.4-6.7 20.2-25.5 10.7-41.2-5.7-9.3-16.7-13.2-30-10.6Zm-.6 12.8c1.7-3.8 3.5-4.7 8.8-4.7 5.5 0 7 .9 8.6 5a10 10 0 0 1-9.6 13.9c-7.3 0-11.1-7-7.8-14.2Z"/></svg>