<?xml version="1.0" encoding="UTF-8" standalone="no"?>
<!DOCTYPE svg PUBLIC "-//W3C//DTD SVG 1.1//EN" "http://www.w3.org/Graphics/SVG/1.1/DTD/svg11.dtd">
<svg width="100%" height="100%" viewBox="0 0 1024 1024" version="1.1" xmlns="http://www.w3.org/2000/svg" xmlns:xlink="http://www.w3.org/1999/xlink" xml:space="preserve" xmlns:serif="http://www.serif.com/" style="fill-rule:evenodd;clip-rule:evenodd;stroke-linejoin:round;stroke-miterlimit:2;">
    <g id="trident" transform="matrix(2.06621,0,0,2.06621,-524.29,-401.276)">
        <path d="M393.777,454.811C379.935,433.485 370.465,418.962 369.819,418.115C367.724,415.369 367.422,411.4 369.25,410.662C371.495,408.384 375.984,416.413 381.222,424.25C383.001,426.912 390.071,437.683 400.19,453.137C398.04,453.635 395.84,454.216 393.777,454.811ZM428.185,507.919C424.262,501.855 420.399,495.886 416.642,490.084C418.656,488.777 420.449,487.648 422.045,486.659C423.846,489.963 425.74,492.854 427.675,495.369C427.958,495.737 428.243,496.102 428.529,496.462C430.315,499.195 432.123,501.962 433.948,504.756C433.02,504.847 431.764,505.149 430.356,506.061C429.885,506.366 429.138,507.006 428.185,507.919ZM318.41,278.145C318.711,277.659 322.004,278.314 325.728,279.601C329.453,280.888 335.087,282.661 338.25,283.541C341.821,284.535 344,285.684 344,286.571C344,287.357 343.438,288.02 342.75,288.045C342.063,288.07 340.203,288.644 338.617,289.321L335.733,290.553L352.141,307.026C372.569,327.536 374.477,330.649 374.49,343.5C374.499,351.352 374.142,353.23 371.689,358.224C369.214,363.264 359.115,374.974 357.207,375.015C356.818,375.024 355.883,375.421 355.13,375.899C353.239,377.096 361.619,388.36 363.783,387.53C365.906,386.715 368,388.837 368,391.803C368,395.77 359.752,403 355.225,403L351.728,403L352.323,398.663C352.949,394.096 352.107,392.125 347.292,386.888L344.89,384.276L336.243,387.257C325.286,391.033 316.271,390.835 307.674,386.629C299.96,382.855 289.215,370.495 281.357,356.36C274.707,344.395 271.926,340 271.006,340C270.468,340 268.828,341.814 267.36,344.032C264.244,348.741 262.613,348.706 262.216,343.923C262.059,342.04 261.236,336.981 260.385,332.68C259.535,328.379 259.067,324.267 259.345,323.543C259.736,322.525 262.315,323.013 270.675,325.684C276.629,327.586 282.063,329.321 282.75,329.54C284.841,330.205 284.15,331.746 281.457,332.421C277.248,333.478 277.424,335.667 282.134,340.845C284.535,343.484 287.175,346.521 288,347.592C288.825,348.664 293.81,354.707 299.078,361.02C306.834,370.317 309.737,373.047 314.341,375.376C320.527,378.505 325.164,378.518 331.149,375.423C334.254,373.817 337.99,368.608 337.996,365.875C338,364.147 341.777,363 347.464,363C354.935,363 362.233,353.197 362.354,343C362.434,336.177 359.91,331.911 349.039,320.5C344.847,316.1 340.086,310.7 338.459,308.5C336.831,306.3 334.488,303.38 333.25,302.01C332.012,300.641 331,299.178 331,298.76C331,296.884 328.258,298.304 325.707,301.5C324.171,303.425 322.537,305 322.075,305C321.613,305 320.936,301.512 320.572,297.25C320.207,292.988 319.448,287.144 318.886,284.264C318.324,281.385 318.11,278.631 318.41,278.145Z" style="fill:white;stroke:white;stroke-width:3.08px;"/>
    </g>
    <g id="body_fur" transform="matrix(2.06621,0,0,2.06621,-524.29,-401.276)">
        <g id="body">
            <path id="body_fur1" serif:id="body_fur" d="M434.819,616.641C435.04,617.38 435.269,618.133 435.505,618.901L439.014,630.302L436.757,631.851C435.516,632.704 432.666,635.377 430.425,637.792L426.351,642.184L422.925,640.105C419.405,637.969 412.659,631.58 409.769,627.918C409.071,627.034 407.441,624.477 407.01,623.809C406.591,623.161 403.964,618.644 401.674,613.378C408.193,614.081 420.162,615.325 434.819,616.641ZM493.609,659.295C486.42,666.325 469.893,672.141 461.549,670.575C458.48,669.999 458,669.528 458,667.09C458,666.505 458.133,665.792 458.359,665.052C458.734,663.83 459.364,662.536 460.075,661.632C461.912,659.297 461.965,658.924 460.537,658.376C458.252,657.499 455.19,660.633 453.8,665.272L452.618,669.218L447.75,668.75C440.798,668.082 440.019,666.911 442.907,661.468C444.211,659.011 445.665,657 446.139,657C446.613,657 447,656.325 447,655.5C447,651.487 440.451,655.293 437.485,661.029C435.65,664.577 434.448,664.802 433.63,661.75C432.512,657.578 432.988,654.416 435.483,649.446C438.246,643.943 442.463,640.607 449.085,638.69C451.513,637.987 453.482,636.982 453.461,636.456C453.439,635.93 451.781,630.325 449.777,624C448.568,620.184 447.503,616.562 446.572,613.084C445.557,609.292 444.702,605.673 443.994,602.162C448.018,602.604 457.578,603.526 467.341,603.526C478.285,603.526 481.033,603.381 491.955,602.247C491.968,602.246 491.98,602.244 491.993,602.243C493.686,608.475 495.779,615.541 498.429,623.659C501.663,633.567 500.609,652.449 493.609,659.295ZM602.03,614.161C601.561,615.857 601.059,617.633 600.522,619.5C598.148,627.75 596.046,635.137 595.852,635.916C595.63,636.807 596.611,637.578 598.5,637.998C609.676,640.483 617.334,650.078 615.584,659.404C614.738,663.912 612.986,663.987 610.633,659.618C608.65,655.937 604.302,653.298 602.76,654.84C602.18,655.42 602.995,657.392 604.912,660.038C606.61,662.382 608,664.919 608,665.675C608,667.411 603.906,669 599.435,669C596.467,669 596,668.671 596,666.577C596,663.815 591.533,658 589.411,658C587.806,658 587.481,661.561 589,662.5C589.715,662.942 590.031,664.949 589.967,666.806C589.911,668.453 589.555,669.982 588.913,670.196C588.315,670.395 584.305,670.256 580.002,669.886C565.472,668.637 552.753,658.163 553.104,644.194C553.501,628.391 555.574,615.339 558.012,604.556C558.037,604.56 558.061,604.564 558.086,604.567C558.086,604.567 570.578,606.162 583.422,606.162C593.025,606.162 596.318,606.05 604.36,605.257C603.696,607.985 602.924,610.927 602.03,614.161ZM662.684,598.531C665.943,599.742 668.986,601.681 671.838,604.362C674.601,606.96 676.552,609.736 677.843,613.037C678.923,615.801 679.541,618.935 679.783,622.641C680.369,631.608 677.899,637.322 671.703,641.34C666.4,644.779 664,644.815 664,641.46C664,638.113 660.537,631.421 658.375,630.591C654.948,629.276 654.409,631.769 656.74,638.168C657.96,641.518 658.685,644.701 658.35,645.242C658.197,645.489 657.805,645.665 657.246,645.778C654.319,646.371 646.825,645.253 645.249,643.677C643.716,642.145 643.775,641.832 646.086,639.264C647.219,638.005 648.295,636.547 649.235,635.057C651.527,631.421 653.006,627.593 652.499,625.996C652.014,624.469 651,624.007 648.183,624.031C645.03,624.057 644.036,624.678 641.273,628.349C640.337,629.593 639.124,630.893 637.765,632.159C633.282,636.335 627.219,640.128 624.328,640.21C622.378,640.265 620.397,639.222 617.995,636.875C616.073,634.997 613.424,632.772 612.108,631.93C610.076,630.63 609.885,630.083 610.841,628.296C611.522,627.023 612.757,622.895 614.112,617.709C633.281,616.44 649.253,615.25 656.221,614.803C657.139,614.744 658.159,614.373 659.046,613.34C659.596,612.698 660.241,611.45 660.738,609.699C661.503,607.003 662.167,602.686 662.684,598.531ZM525.445,655.081C523.789,655.06 522.136,655.027 520.602,654.983C515.717,654.5 514.15,652.66 513.121,649.28C511.458,643.821 509.057,633.179 506.505,621.369C513.119,621.589 519.53,621.713 525.567,621.713C531.214,621.713 537.586,621.592 544.409,621.383C542.915,633.414 541.528,642.105 538.052,651.457C536.987,654.325 531.057,654.927 525.445,655.081ZM656.233,595.251C655.942,597.832 655.584,600.628 655.172,603.125C654.88,604.888 654.346,606.954 654.024,608.127C646.665,608.62 632.59,609.658 615.844,610.776C617.735,602.891 619.51,594.434 620.058,590.028C621.604,577.594 620.09,566.096 616.6,563.765C614.741,562.524 611.749,562.917 609.829,564.655C608.273,566.063 608,567.915 608,577.045C608,584.315 607.456,590.536 605.919,598.26C596.461,599.228 593.565,599.356 583.422,599.356C572.751,599.356 562.333,598.217 559.625,597.898C562.693,585.999 565.881,577.275 566.859,570.871C568.142,562.477 562.468,553.17 556.283,569.957C551.361,583.316 547.527,595.945 546.176,606.827C545.837,609.552 545.529,612.118 545.237,614.55C538.101,614.776 531.44,614.907 525.567,614.907C519.085,614.907 512.168,614.763 505.033,614.511C502.083,600.703 499.084,586.374 496.911,577.48C490.571,551.53 483.17,562.047 484.748,570.058C486.085,576.846 487.553,584.852 490.25,595.581C480.462,596.588 477.63,596.72 467.341,596.72C454.934,596.72 442.867,595.179 442.867,595.179C442.83,595.175 442.794,595.171 442.757,595.167C442.005,590.204 441.552,585.381 441.358,580.5C440.764,565.558 440.464,564.107 437.757,563.106C431.389,560.75 429,565.593 429,580.857C429,590.873 430.011,598.892 432.838,609.631C416.337,608.126 403.635,606.754 398.997,606.24C398.731,605.395 398.586,604.826 398.368,604C395.834,594.386 396.055,578.637 398.865,568.5C402.716,554.608 410.776,539.868 422.564,525.155C428.36,517.92 433.827,512 434.711,512C435.096,512 435.921,512.355 436.98,512.946C438.355,513.712 440.123,514.873 441.837,516.167C458.217,528.533 484.998,536.78 514.5,538.542C526.639,539.267 549.263,537.721 561,535.363C577.337,532.081 594.377,525.019 606.798,516.38C608.783,514.999 610.758,513.763 612.221,512.958L612.218,512.957C612.218,512.957 613.625,512.001 614.427,512C615.2,511.999 617.276,513.725 619.13,515.833C620.983,517.942 625.353,522.856 628.84,526.754C644.21,543.935 654.311,566.637 655.645,586.998C655.645,586.998 656.034,592.45 656.233,595.251ZM516.23,575.407L516.23,589.416C516.23,590.023 516.722,590.516 517.33,590.516L532.439,590.516C533.046,590.516 533.538,590.023 533.538,589.416L533.538,575.407L547.547,575.407C548.155,575.407 548.647,574.915 548.647,574.307L548.647,559.198C548.647,558.591 548.155,558.099 547.547,558.099L533.538,558.099L533.538,544.09C533.538,543.482 533.046,542.99 532.439,542.99L517.33,542.99C516.722,542.99 516.23,543.482 516.23,544.09L516.23,558.099L502.221,558.099C501.613,558.099 501.121,558.591 501.121,559.198L501.121,574.307C501.121,574.915 501.613,575.407 502.221,575.407L516.23,575.407ZM531.339,545.189L531.339,558.099L518.43,558.099L518.43,545.189L531.339,545.189ZM546.448,560.298L546.448,573.207L533.538,573.207L533.538,560.298L546.448,560.298ZM531.339,575.407L531.339,588.316L518.43,588.316L518.43,575.407L531.339,575.407ZM516.23,560.298L516.23,573.207L503.321,573.207L503.321,560.298L516.23,560.298ZM518.43,560.298L531.339,560.298L531.339,573.207L518.43,573.207L518.43,560.298Z" style="fill:white;"/>
        </g>
    </g>
    <g id="budy_head" transform="matrix(2.06621,0,0,2.06621,-524.29,-401.276)">
        <path d="M425.222,476.423C423.552,477.286 422.05,478.116 420.84,478.854C415.594,482.052 407.782,486.916 396,495.5C393.78,497.118 389.639,497.364 387.536,495.04C385.365,492.641 385.987,489.605 389.474,485.594C390.661,484.228 394.798,481.634 399.228,479.438C416.77,470.745 407.021,470.6 397.795,472.653C392.569,473.816 387.459,475.598 386.488,476.005C384.02,477.039 382.415,477.273 380.571,475.429C378.154,473.011 378.649,469.423 381.707,467.195C381.707,467.195 386.259,465.05 389.287,463.914C393.431,462.36 401.329,460.069 407.031,459.206C411.232,458.571 415.522,458.289 419.777,458.465C419.729,458.112 419.685,457.761 419.644,457.413C419.303,453.873 419.191,448.5 419.191,448.5C418.683,432.019 421.788,417.251 428.88,402.641C436.268,403.048 458.292,404.229 481.02,405.135C477.74,406.952 477.136,411.136 480,414C483.725,417.725 492,415.281 492,410.455C492,409.605 490.895,407.805 489.545,406.455C489.146,406.056 488.757,405.711 488.369,405.417C501.913,405.915 515.174,406.275 525.201,406.275C534.415,406.275 546.565,405.945 559.111,405.48C558.782,405.724 558.468,406.001 558.174,406.314C555.516,409.144 555.434,411.079 557.844,414.056C561.598,418.692 570,415.821 570,409.902C570,407.8 568.872,406.156 567.253,405.163C590.573,404.212 613.379,402.942 619.574,402.59C625.304,414.804 627.852,428.049 628.202,444.597C628.202,444.597 628.339,454.088 628.496,458.468C628.496,458.475 628.497,458.483 628.497,458.49C628.497,458.49 628.49,458.582 628.487,458.623C631.326,458.519 635.345,458.413 638.776,458.5C644.233,458.638 648.152,459.454 651.406,460.582C658.857,463.166 667.431,466.459 666.825,471.561C666.26,476.324 664.078,476.703 654.737,473.664C637.158,467.943 633.975,469.309 647.368,476.825C651.606,479.204 656.917,482.903 659.168,485.045C662.794,488.494 663.188,489.309 662.616,492.17C661.46,497.949 657.272,498.594 651.388,493.898C647.492,490.79 637.649,484.356 635.637,483.483C635.637,483.483 627.516,478.301 624.875,476.57C624.837,476.691 624.807,476.785 624.785,476.85C624.77,476.894 624.76,476.921 624.757,476.929C618.582,493.069 598.916,510.028 578.961,516.934C557.88,524.229 542.163,526.465 517.261,525.714C500.68,525.214 497.13,524.792 486.706,522.09C460.365,515.261 445.455,506.537 433.446,490.929C431.186,487.992 428.997,484.479 426.966,480.32C426.403,479.096 425.853,477.829 425.222,476.423ZM466.17,423.716C464.888,423.96 462.076,425.924 459.92,428.08C456.35,431.65 456,432.472 456,437.277C456,444.97 459.825,449.819 467.635,452.027C471.236,453.045 472.371,452.93 476.424,451.137C484.525,447.553 487.093,437.616 482.058,429.336C479.069,424.421 473.259,422.366 466.17,423.716ZM465.818,430.5C466.721,428.517 467.691,428 470.503,428C473.414,428 474.229,428.472 475.051,430.635C476.478,434.388 473.98,438 469.956,438C466.098,438 464.073,434.33 465.818,430.5ZM572.45,424.407C564.814,427.733 561.448,436.098 564.618,443.873C566.153,447.638 567.384,448.936 571.224,450.843C577.665,454.039 582.821,453.173 588.412,447.954C592.396,444.236 593.131,441.065 593.121,437.718C593.111,434.372 592.303,430.92 588.745,427.661C583.677,423.019 578.164,421.918 572.45,424.407ZM576.704,428.146C580.673,425.924 585.292,430.259 583.443,434.697C582.64,436.625 581.615,437.629 579.263,437.911C577.392,438.136 574.628,437.095 573.998,435.495C572.847,432.571 573.935,429.695 576.704,428.146ZM516.01,446.122C511.968,446.962 510,448.763 510,451.622C510,454.487 513.093,457.788 517.08,459.178C520.827,460.484 520.755,461.445 516.6,465.6C512.279,469.921 507.301,470.23 502.389,466.483C499.109,463.981 499.082,463.978 497.989,466.021C496.553,468.704 497.361,471.013 500.931,474.434C505.945,479.238 514.116,479.508 520.121,475.069C523.666,472.448 524.132,472.471 528.595,475.5C531.481,477.458 533.54,478 538.097,478C543.455,478 544.228,477.703 547.866,474.243C551.099,471.167 551.72,469.985 551.288,467.728C550.535,463.787 549.375,463.507 545.903,466.428C540.163,471.258 530.706,468.95 528.563,462.198C527.957,460.29 528.467,459.729 532.299,458.086C535.469,456.727 536.924,455.437 537.393,453.571C538.221,450.271 536.599,447.166 533.721,446.542C529.945,445.723 519.164,445.467 516.01,446.122ZM459.21,364.112L464.351,359.171L454.809,347.283C439.628,328.37 430.775,313.456 423.18,294C417.341,279.043 414.49,253.606 416.9,238C418.65,226.667 421.897,217.226 424.839,214.912C426.71,213.44 428.167,213.094 430.434,213.584C442.602,216.213 461.889,233.529 473.338,252.104C479.626,262.306 485.349,277.882 488.575,293.578C491.148,306.098 491.212,307.235 490.623,330.134C490.105,350.293 490.233,353.948 491.495,354.996C493.933,357.019 495.85,355.404 499.108,348.584C501.261,344.076 504.335,340.045 509.236,335.305C524.999,320.059 527.732,315.962 530.765,303.039C532.55,295.434 534.15,293.94 538.192,296.103C541.413,297.827 542.466,299.044 545.075,304.063C546.889,307.552 547.472,310.588 547.808,318.278C548.17,326.567 548.521,328.209 550.117,329.063C552.914,330.56 555.378,328.806 559.962,322.057C567.054,311.614 573.572,309.189 578.981,314.98C583.17,319.465 583.604,328.191 581.051,336.382C579.526,341.273 576.936,345.973 573.445,349.464C568.496,354.413 557.342,358 546.901,358C546.88,358 546.858,358 546.837,358C539.42,358.02 531.403,361.461 528.07,366.062C527.719,366.547 527.393,366.975 527.093,367.349C525.087,369.839 524.208,369.844 524.436,367.361C524.48,366.878 524.566,366.302 524.693,365.632C526.182,357.802 531.681,351.221 539.759,347.598C542.841,346.216 544,345.109 544,343.548C544,338.681 538.629,337.624 531.148,341.019C523.804,344.351 519.298,348.648 515.891,355.57C513.905,359.604 513.172,361.409 513.075,364.112L459.21,364.112ZM470.732,350.4C475.032,351.039 472.119,322.016 468.537,308.494C464.624,293.725 448.783,255.082 440.787,256.832C434.253,258.262 439.78,290.525 443.461,304.418C447.374,319.188 466.432,349.762 470.732,350.4ZM574.459,364.112C577.788,362.227 580.699,360.053 583.215,357.56C588.959,351.869 592.642,344.516 594.535,335.147C594.919,333.245 595.222,331.292 595.426,329.486C596.565,326.86 597.739,323.902 598.866,320.995C604.387,306.748 614.302,266.179 606.806,262.891C601.003,260.346 587.684,286.541 581.88,300.702C577.856,298.545 573.248,297.849 568.416,298.931C565.456,299.594 562.775,300.555 562.458,301.068C562.264,301.381 561.913,301.66 561.534,301.829C561.293,301.937 561.041,302 560.812,302C559.62,302 560.222,295.788 562.472,284.883C564.481,275.144 571.238,258.655 577.184,248.983C584.647,236.844 600.096,221.589 609.884,216.693C618.62,212.324 621.245,212.119 624.257,215.572C632.421,224.933 634.798,259.228 628.897,282.5C625.888,294.368 616.148,315.957 607.612,329.684C602.171,338.435 590.471,353.802 586.546,357.351C585.042,358.711 584.683,359.112 589.442,364.112L574.459,364.112ZM452.154,370.918L513.514,370.918C514.427,378.231 516.659,382.995 520.862,386.757C525.267,390.7 527.303,391.443 529.895,390.056C531.953,388.955 532.43,387.854 533.431,381.896C533.764,379.909 535.547,376.544 537.403,374.397L540.409,370.918L596.12,370.918L596.549,371.351C604.894,379.765 611.303,387.72 616.1,395.969C600.669,396.829 551.2,399.469 525.201,399.469C498.591,399.469 449.114,396.921 432.369,396.016C437.61,386.745 442.935,379.987 452.154,370.918Z" style="fill:white;"/>
    </g>
</svg>
