<?xml version="1.0" encoding="UTF-8" standalone="no"?>
<!DOCTYPE svg PUBLIC "-//W3C//DTD SVG 1.1//EN" "http://www.w3.org/Graphics/SVG/1.1/DTD/svg11.dtd">
<svg width="100%" height="100%" viewBox="0 0 1024 1024" version="1.1" xmlns="http://www.w3.org/2000/svg" xmlns:xlink="http://www.w3.org/1999/xlink" xml:space="preserve" xmlns:serif="http://www.serif.com/" style="fill-rule:evenodd;clip-rule:evenodd;stroke-linejoin:round;stroke-miterlimit:2;">
    <g id="trident" transform="matrix(1.20372,0,0,1.20372,-87.9499,-109.288)">
        <g>
            <g transform="matrix(1.57197,0,0,1.57197,-296.178,-158.351)">
                <path d="M393.758,454.781C379.926,433.471 370.465,418.962 369.819,418.115C367.724,415.369 367.422,411.4 369.25,410.662C371.495,408.384 375.984,416.413 381.222,424.25C383,426.91 390.061,437.669 400.17,453.106C398.02,453.605 395.82,454.185 393.758,454.781Z" style="fill:white;stroke:white;stroke-width:3.09px;"/>
            </g>
            <g transform="matrix(1.57197,0,0,1.57197,-296.178,-158.351)">
                <path d="M428.166,507.89C424.256,501.846 420.405,495.897 416.66,490.113C418.636,488.831 420.398,487.72 421.971,486.745C423.304,489.267 424.969,491.909 427.648,495.39C428.007,495.857 428.368,496.318 428.732,496.774C430.445,499.394 432.178,502.046 433.927,504.723C432.997,504.817 431.742,505.122 430.337,506.032C429.866,506.337 429.119,506.977 428.166,507.89Z" style="fill:white;stroke:white;stroke-width:3.09px;"/>
            </g>
        </g>
        <g transform="matrix(1.57197,0,0,1.57197,-296.178,-158.351)">
            <path d="M331.372,268.768C331.673,268.282 334.966,268.937 338.69,270.224C342.415,271.511 348.049,273.284 351.212,274.164C354.783,275.158 356.962,276.307 356.962,277.194C356.962,277.98 356.4,278.643 355.712,278.668C355.025,278.693 353.165,279.267 351.579,279.944L348.695,281.176L365.103,297.649C385.531,318.159 389.38,321.449 389.393,334.3C389.402,342.152 387.104,343.853 384.651,348.847C382.176,353.887 359.115,374.974 357.207,375.015C356.818,375.024 355.883,375.421 355.13,375.899C353.239,377.096 361.619,388.36 363.783,387.53C365.906,386.715 368,388.837 368,391.803C368,395.77 359.752,403 355.225,403L351.728,403L352.323,398.663C352.949,394.096 352.107,392.125 347.292,386.888L344.89,384.276L336.243,387.257C325.286,391.033 303.24,401.453 294.643,397.247C286.929,393.473 276.184,381.113 268.326,366.978C261.676,355.013 258.895,350.618 257.975,350.618C257.437,350.618 255.797,352.432 254.329,354.65C251.213,359.359 249.582,359.324 249.185,354.541C249.028,352.658 248.205,347.599 247.354,343.298C246.504,338.997 246.036,334.885 246.314,334.161C246.705,333.143 249.284,333.631 257.644,336.302C263.598,338.204 269.032,339.939 269.719,340.158C271.81,340.823 271.119,342.364 268.426,343.039C264.217,344.096 264.393,346.285 269.103,351.463C271.504,354.102 274.144,357.139 274.969,358.21C275.794,359.282 280.779,365.325 286.047,371.638C293.803,380.935 296.706,383.665 301.31,385.994C307.496,389.123 328.367,379.46 333.642,375.269C336.58,372.934 337.741,371.94 333.623,366.031C321.378,348.466 298.909,323.049 287.328,301.984C286.938,300.162 281.425,304.601 278.263,307.217C277.35,307.972 278.168,304.025 278.335,293.734C278.415,288.824 278.428,283.261 278.931,282.91C279.474,282.53 283.734,283.466 288.468,285.568C298.091,289.842 303.836,291.422 303.006,291.618C301.841,291.893 296.382,295.251 295.007,296.076C308.813,315.883 331.31,340.999 343.203,358.642C347.924,365.645 350.873,364.316 353.675,361.963C361.626,355.286 375.195,343.82 375.316,333.623C375.396,326.8 372.872,322.534 362.001,311.123C357.809,306.723 353.048,301.323 351.421,299.123C349.793,296.923 347.45,294.003 346.212,292.633C344.974,291.264 343.962,289.801 343.962,289.383C343.962,287.507 341.22,288.927 338.669,292.123C337.133,294.048 335.499,295.623 335.037,295.623C334.575,295.623 333.898,292.135 333.534,287.873C333.169,283.611 332.41,277.767 331.848,274.887C331.286,272.008 331.072,269.254 331.372,268.768Z" style="fill:white;stroke:white;stroke-width:2.95px;"/>
        </g>
    </g>
    <g id="fill_body" transform="matrix(1.89221,0,0,1.89221,-444.465,-299.898)">
        <path d="M434.819,616.641C435.04,617.38 435.269,618.133 435.505,618.901L439.014,630.302L436.757,631.851C435.516,632.704 432.666,635.377 430.425,637.792L426.351,642.184L422.925,640.105C419.405,637.969 412.659,631.58 409.769,627.918C409.071,627.034 407.441,624.477 407.01,623.809C406.591,623.161 403.964,618.644 401.674,613.378C408.193,614.081 420.162,615.325 434.819,616.641ZM493.609,659.295C486.42,666.325 469.893,672.141 461.549,670.575C458.48,669.999 458,669.528 458,667.09C458,666.505 458.133,665.792 458.359,665.052C458.734,663.83 459.364,662.536 460.075,661.632C461.912,659.297 461.965,658.924 460.537,658.376C458.252,657.499 455.19,660.633 453.8,665.272L452.618,669.218L447.75,668.75C440.798,668.082 440.019,666.911 442.907,661.468C444.211,659.011 445.665,657 446.139,657C446.613,657 447,656.325 447,655.5C447,651.487 440.451,655.293 437.485,661.029C435.65,664.577 434.448,664.802 433.63,661.75C432.512,657.578 432.988,654.416 435.483,649.446C438.246,643.943 442.463,640.607 449.085,638.69C451.513,637.987 453.482,636.982 453.461,636.456C453.439,635.93 451.781,630.325 449.777,624C447.249,616.023 445.351,608.893 443.994,602.162C448.018,602.604 457.578,603.526 467.341,603.526C478.285,603.526 481.033,603.381 491.955,602.247C491.968,602.246 491.98,602.244 491.993,602.243C493.686,608.475 495.779,615.541 498.429,623.659C501.663,633.567 500.609,652.449 493.609,659.295ZM600.522,619.5C598.148,627.75 596.046,635.137 595.852,635.916C595.63,636.807 596.611,637.578 598.5,637.998C609.676,640.483 617.334,650.078 615.584,659.404C614.738,663.912 612.986,663.987 610.633,659.618C608.65,655.937 604.302,653.298 602.76,654.84C602.18,655.42 602.995,657.392 604.912,660.038C606.61,662.382 608,664.919 608,665.675C608,667.411 603.906,669 599.435,669C596.467,669 596,668.671 596,666.577C596,663.815 591.533,658 589.411,658C587.806,658 587.481,661.561 589,662.5C589.715,662.942 590.031,664.949 589.967,666.806C589.911,668.453 589.555,669.982 588.913,670.196C588.315,670.395 584.305,670.256 580.002,669.886C565.472,668.637 552.753,658.163 553.104,644.194C553.501,628.391 555.574,615.339 558.012,604.556C558.037,604.56 558.061,604.564 558.086,604.567C558.086,604.567 570.578,606.162 583.422,606.162C593.025,606.162 596.318,606.05 604.36,605.257C603.348,609.415 602.084,614.073 600.522,619.5ZM662.684,598.531C665.943,599.742 668.986,601.681 671.838,604.362C674.601,606.96 676.552,609.736 677.843,613.037C678.923,615.801 679.541,618.935 679.783,622.641C680.369,631.608 677.899,637.322 671.703,641.34C666.4,644.779 664,644.815 664,641.46C664,638.113 660.537,631.421 658.375,630.591C654.948,629.276 654.409,631.769 656.74,638.168C657.96,641.518 658.685,644.701 658.35,645.242C658.197,645.489 657.805,645.665 657.246,645.778C654.319,646.371 646.825,645.253 645.249,643.677C643.716,642.145 643.775,641.832 646.086,639.264C647.219,638.005 648.295,636.547 649.235,635.057C651.527,631.421 653.006,627.593 652.499,625.996C652.014,624.469 651,624.007 648.183,624.031C645.03,624.057 644.036,624.678 641.273,628.349C640.337,629.593 639.124,630.893 637.765,632.159C633.282,636.335 627.219,640.128 624.328,640.21C622.378,640.265 620.397,639.222 617.995,636.875C616.073,634.997 613.424,632.772 612.108,631.93C610.076,630.63 609.885,630.083 610.841,628.296C611.522,627.023 612.757,622.895 614.112,617.709C633.281,616.44 649.253,615.25 656.221,614.803C657.139,614.744 658.159,614.373 659.046,613.34C659.596,612.698 660.241,611.45 660.738,609.699C661.503,607.003 662.167,602.686 662.684,598.531ZM656.233,595.251C655.942,597.832 655.584,600.628 655.172,603.125C654.88,604.888 654.346,606.954 654.024,608.127C646.665,608.62 632.59,609.658 615.844,610.776C617.735,602.891 619.51,594.434 620.058,590.028C621.604,577.594 620.09,566.096 616.6,563.765C614.741,562.524 611.749,562.917 609.829,564.655C608.273,566.063 608,567.915 608,577.045C608,584.315 607.456,590.536 605.919,598.26C596.461,599.228 593.565,599.356 583.422,599.356C572.751,599.356 562.333,598.217 559.625,597.898C562.693,585.999 565.881,577.275 566.859,570.871C568.142,562.477 562.468,553.17 556.283,569.957C551.361,583.316 547.527,595.945 546.176,606.827C545.837,609.552 545.529,612.118 545.237,614.55C538.101,614.776 531.44,614.907 525.567,614.907C519.085,614.907 512.168,614.763 505.033,614.511C502.083,600.703 499.084,586.374 496.911,577.48C490.571,551.53 483.17,562.047 484.748,570.058C486.085,576.846 487.553,584.852 490.25,595.581C480.462,596.588 477.63,596.72 467.341,596.72C454.934,596.72 442.867,595.179 442.867,595.179C442.83,595.175 442.794,595.171 442.757,595.167C442.005,590.204 441.552,585.381 441.358,580.5C440.764,565.558 440.464,564.107 437.757,563.106C431.389,560.75 429,565.593 429,580.857C429,590.873 430.011,598.892 432.838,609.631C416.337,608.126 403.635,606.754 398.997,606.24C398.731,605.395 398.586,604.826 398.368,604C395.834,594.386 396.055,578.637 398.865,568.5C402.716,554.608 410.776,539.868 422.564,525.155C428.36,517.92 433.827,512 434.711,512C435.096,512 435.921,512.355 436.98,512.946C438.355,513.712 440.123,514.873 441.837,516.167C458.217,528.533 484.998,536.78 514.5,538.542C526.639,539.267 549.263,537.721 561,535.363C577.337,532.081 594.377,525.019 606.798,516.38C608.783,514.999 610.758,513.763 612.221,512.958L612.218,512.957C612.218,512.957 613.625,512.001 614.427,512C615.2,511.999 617.276,513.725 619.13,515.833C620.983,517.942 625.353,522.856 628.84,526.754C644.21,543.935 654.311,566.637 655.645,586.998C655.645,586.998 656.034,592.45 656.233,595.251ZM506.505,621.369C513.119,621.589 519.53,621.713 525.567,621.713C531.214,621.713 537.586,621.592 544.409,621.383C542.915,633.414 541.528,642.105 538.052,651.457C536.987,654.325 531.057,654.927 525.445,655.081C523.789,655.06 522.136,655.027 520.602,654.983C515.717,654.5 514.15,652.66 513.121,649.28C511.458,643.821 509.057,633.179 506.505,621.369Z" style="fill:white;"/>
    </g>
    <g id="fill_head" transform="matrix(1.89221,0,0,1.89221,-444.465,-299.898)">
        <g id="head">
            <path id="fill_head1" serif:id="fill_head" d="M425.222,476.423C423.552,477.286 422.05,478.116 420.84,478.854C415.594,482.052 407.782,486.916 396,495.5C393.78,497.118 389.639,497.364 387.536,495.04C385.365,492.641 385.987,489.605 389.474,485.594C390.661,484.228 394.798,481.634 399.228,479.438C416.77,470.745 407.021,470.6 397.795,472.653C392.569,473.816 387.459,475.598 386.488,476.005C384.02,477.039 382.415,477.273 380.571,475.429C378.154,473.011 378.649,469.423 381.707,467.195C381.707,467.195 386.259,465.05 389.287,463.914C393.431,462.36 401.329,460.069 407.031,459.206C411.226,458.572 415.51,458.29 419.76,458.464C419.328,455.067 419.191,448.5 419.191,448.5C418.629,430.273 422.487,414.14 431.269,398C437.278,386.955 443.047,379.648 454.297,368.835L464.351,359.171L454.809,347.283C439.628,328.37 430.774,313.456 423.18,294C417.341,279.043 414.489,253.606 416.9,238C418.65,226.667 421.897,217.226 424.839,214.912C426.71,213.44 428.167,213.094 430.434,213.584C442.602,216.212 461.889,233.529 473.338,252.104C479.626,262.306 485.349,277.882 488.575,293.578C491.148,306.098 491.212,307.235 490.623,330.134C490.105,350.293 490.233,353.948 491.495,354.996C493.933,357.019 495.85,355.404 499.108,348.584C501.261,344.076 504.335,340.045 509.236,335.305C524.999,320.059 527.732,315.962 530.765,303.039C532.55,295.434 534.15,293.94 538.192,296.103C541.413,297.827 542.466,299.044 545.075,304.063C546.889,307.552 547.472,310.588 547.808,318.278C548.17,326.567 548.521,328.209 550.117,329.063C552.914,330.56 555.378,328.806 559.962,322.057C567.053,311.614 573.572,309.189 578.981,314.98C585.671,322.142 582.784,340.125 573.445,349.464C568.496,354.413 557.342,358 546.901,358C539.466,358 531.413,361.448 528.07,366.062C524.92,370.41 523.811,370.269 524.693,365.632C526.182,357.802 531.681,351.221 539.759,347.598C542.841,346.216 544,345.109 544,343.548C544,338.681 538.629,337.624 531.148,341.019C523.804,344.351 519.298,348.648 515.891,355.57C512.984,361.474 512.762,362.603 513.289,368.763C514.021,377.317 516.26,382.638 520.862,386.757C525.267,390.7 527.303,391.443 529.895,390.056C531.953,388.955 532.43,387.854 533.431,381.896C533.764,379.909 535.547,376.544 537.403,374.397L540.769,370.502L552.332,369.887C562.781,369.332 564.597,368.939 571.199,365.803C584.127,359.664 591.553,349.908 594.535,335.147C594.919,333.245 595.222,331.292 595.426,329.486C596.565,326.86 597.739,323.902 598.866,320.995C604.387,306.748 614.302,266.179 606.806,262.891C601.003,260.346 587.684,286.541 581.88,300.702C577.856,298.545 573.248,297.85 568.416,298.931C565.456,299.594 562.775,300.555 562.458,301.068C562.141,301.581 561.401,302 560.812,302C559.62,302 560.222,295.788 562.472,284.883C564.481,275.144 571.238,258.655 577.184,248.983C584.647,236.844 600.096,221.589 609.884,216.693C618.62,212.324 621.245,212.119 624.257,215.572C632.421,224.933 634.798,259.228 628.897,282.5C625.888,294.368 616.149,315.957 607.612,329.684C602.171,338.435 590.47,353.801 586.546,357.351C584.512,359.19 584.572,359.275 596.549,371.351C619.155,394.143 627.546,413.561 628.202,444.597C628.202,444.597 628.339,454.088 628.496,458.468C628.498,458.519 628.499,458.57 628.5,458.622C631.339,458.518 635.35,458.414 638.776,458.5C644.233,458.638 648.152,459.454 651.406,460.582C658.857,463.166 667.431,466.459 666.825,471.561C666.26,476.324 664.078,476.703 654.737,473.664C637.158,467.943 633.975,469.309 647.368,476.825C651.606,479.204 656.917,482.903 659.168,485.045C662.794,488.494 663.188,489.309 662.616,492.17C661.46,497.949 657.272,498.594 651.388,493.898C647.492,490.79 637.649,484.356 635.637,483.483C635.637,483.483 627.516,478.301 624.875,476.57C624.817,476.755 624.777,476.878 624.757,476.929C618.582,493.069 598.916,510.029 578.961,516.934C557.88,524.23 542.163,526.466 517.261,525.714C500.68,525.214 497.13,524.792 486.706,522.09C460.365,515.26 445.455,506.537 433.446,490.929C428.748,484.825 427.52,481.545 425.222,476.423ZM558.174,397.314C555.516,400.144 555.434,402.079 557.844,405.056C561.598,409.692 570,406.821 570,400.902C570,395.379 562.212,393.016 558.174,397.314ZM482,395.694C477.882,397.166 476.871,401.871 480,405C483.725,408.725 492,406.281 492,401.455C492,400.605 490.895,398.805 489.545,397.455C487.162,395.071 485.093,394.589 482,395.694ZM470.732,350.4C475.032,351.039 472.119,322.016 468.537,308.494C464.624,293.725 448.783,255.082 440.787,256.832C434.253,258.262 439.78,290.525 443.461,304.418C447.374,319.188 466.432,349.762 470.732,350.4ZM572.45,424.407C564.814,427.733 561.448,436.098 564.618,443.873C566.153,447.638 567.384,448.936 571.224,450.843C577.665,454.039 582.821,453.173 588.412,447.954C592.396,444.236 593.131,441.065 593.121,437.718C593.111,434.372 592.303,430.92 588.745,427.661C583.677,423.019 578.164,421.918 572.45,424.407ZM576.704,428.146C580.673,425.924 585.292,430.259 583.443,434.697C582.64,436.625 581.615,437.629 579.263,437.911C577.392,438.136 574.628,437.095 573.998,435.495C572.847,432.571 573.935,429.695 576.704,428.146ZM516.01,446.122C511.968,446.962 510,448.763 510,451.622C510,454.487 513.093,457.788 517.08,459.178C520.827,460.484 520.755,461.445 516.6,465.6C512.279,469.921 507.301,470.23 502.389,466.483C499.109,463.981 499.082,463.978 497.989,466.021C496.553,468.704 497.361,471.013 500.931,474.434C505.945,479.238 514.116,479.508 520.121,475.069C523.666,472.448 524.132,472.471 528.595,475.5C531.481,477.458 533.54,478 538.097,478C543.455,478 544.228,477.703 547.866,474.243C551.099,471.167 551.72,469.985 551.288,467.728C550.535,463.787 549.375,463.507 545.903,466.428C540.163,471.258 530.706,468.95 528.563,462.198C527.957,460.29 528.467,459.729 532.299,458.086C535.469,456.727 536.924,455.437 537.393,453.571C538.221,450.271 536.599,447.166 533.721,446.542C529.945,445.723 519.164,445.467 516.01,446.122ZM466.17,423.716C464.888,423.96 462.076,425.924 459.92,428.08C456.35,431.65 456,432.472 456,437.277C456,444.97 459.825,449.819 467.635,452.027C471.236,453.045 472.371,452.93 476.424,451.137C484.525,447.553 487.093,437.616 482.058,429.336C479.069,424.421 473.259,422.366 466.17,423.716ZM465.818,430.5C466.721,428.517 467.691,428 470.503,428C473.414,428 474.229,428.472 475.051,430.635C476.478,434.388 473.98,438 469.956,438C466.098,438 464.073,434.33 465.818,430.5Z" style="fill:white;"/>
        </g>
    </g>
</svg>
