<?xml version="1.0" encoding="UTF-8"?>
<svg width="1200pt" height="1200pt" version="1.1" viewBox="0 0 1200 1200" xmlns="http://www.w3.org/2000/svg">
 <path d="m37.5 900c0 62.109 50.391 112.5 112.5 112.5h900c62.109 0 112.5-50.391 112.5-112.5v-600c0-62.109-50.391-112.5-112.5-112.5h-900c-62.109 0-112.5 50.391-112.5 112.5zm75-14.953 309.84-285.05-309.84-285.05zm53.766 52.453h867.47l-311.44-286.55-20.719 19.078c-57.422 52.781-145.74 52.781-203.16 0l-20.719-19.078zm337.13-364.87 45.844 42.188c28.688 26.438 72.844 26.438 101.53 0l45.844-42.188c0.23438-0.14062 0.42188-0.32812 0.60938-0.51562l336.52-309.61h-867.47l336.52 309.61c0.1875 0.1875 0.375 0.375 0.60938 0.51562zm274.26 27.375 309.84 285.05v-570.1z" fill-rule="evenodd"/>
</svg>
