<?xml version="1.0" encoding="UTF-8"?>
<svg width="1200pt" height="1200pt" version="1.1" viewBox="0 0 1200 1200" xmlns="http://www.w3.org/2000/svg">
 <g>
  <path d="m1021.2 711.6v135.6c0 96-78 174-174 174l-494.4-0.003906c-96 0-174-78-174-174v-494.4c0-96 78-174 174-174h135.6c-8.3984-22.801-14.398-48-14.398-74.398 0-26.398 6-51.602 14.398-74.398l-135.6-0.003906c-177.6 0-322.8 145.2-322.8 322.8v494.4c0 177.6 145.2 322.8 322.8 322.8h494.4c177.6 0 322.8-145.2 322.8-322.8v-135.6c-22.801 8.3984-48 14.398-74.398 14.398-26.402 0-51.602-4.8008-74.402-14.398z"/>
  <path d="m1095.6 30h-415.2c-40.801 0-74.398 33.602-74.398 74.398 0 40.801 33.602 74.398 74.398 74.398h235.2l-530.4 530.4c-28.801 28.801-28.801 76.801 0 105.6 14.398 14.398 33.602 21.602 52.801 21.602s38.398-7.1992 52.801-21.602l530.4-530.4v235.2c0 40.801 33.602 74.398 74.398 74.398 40.801 0 74.398-33.602 74.398-74.398l0.003906-415.2c0-40.797-33.602-74.398-74.398-74.398z"/>
 </g>
</svg>
